<?xml version="1.0" standalone="no"?>
<!DOCTYPE svg PUBLIC "-//W3C//DTD SVG 20010904//EN"
    "http://www.w3.org/TR/2001/REC-SVG-20010904/DTD/svg10.dtd">
<svg version="1.0" xmlns="http://www.w3.org/2000/svg"
    width="960pt" height="960pt" viewBox="0 0 960 960"
    preserveAspectRatio="xMidYMid meet">
    <metadata>
        Created by potrace 1.8, written by Peter Selinger 2001-2007
    </metadata>
    <g transform="translate(0,960) scale(0.080000,-0.080000)"
        fill="#000000" stroke="none">
        <path d="M1767 7724 c-1 -1 -46 -4 -99 -8 -619 -40 -976 -434 -1055 -1161 -16
-148 -8 -595 12 -690 2 -11 7 -38 10 -60 12 -86 68 -283 94 -332 5 -10 22 -43
36 -73 106 -215 287 -381 512 -471 73 -29 216 -69 263 -74 56 -7 137 -17 160
-21 31 -5 336 -5 370 0 14 2 47 7 73 11 53 7 58 8 132 24 52 12 157 44 210 64
56 22 200 98 210 111 6 8 9 255 8 702 -1 379 -2 696 -2 705 -1 9 -11 20 -23
25 -14 6 -212 9 -474 9 -360 -1 -455 -4 -468 -14 -14 -12 -16 -45 -16 -250 0
-171 3 -240 12 -249 8 -8 66 -12 195 -12 l183 0 0 -40 c1 -22 1 -96 1 -165 0
-69 0 -174 -1 -234 l0 -109 -27 -6 c-60 -13 -113 -16 -240 -17 -250 -1 -394
67 -505 237 -44 69 -86 178 -103 269 -2 17 -7 44 -11 60 -27 144 -27 482 0
628 66 355 241 535 556 572 101 13 343 6 430 -11 14 -2 35 -6 48 -9 12 -2 57
-14 100 -25 106 -30 109 -30 121 -16 5 6 15 34 21 61 7 28 13 57 15 65 2 8 11
47 20 85 9 39 18 77 20 85 2 8 10 43 19 76 27 104 25 108 -51 145 -69 33 -224
75 -315 84 -29 4 -58 8 -65 10 -23 8 -368 25 -376 19z"/>
        <path d="M5382 7602 c-16 -16 -17 -111 -17 -1359 0 -738 4 -1345 8 -1350 5 -4
132 -9 283 -10 253 -1 275 0 286 16 10 14 13 147 13 590 l0 571 395 -3 395 -2
0 -571 c0 -449 3 -574 13 -586 11 -14 52 -16 287 -16 271 0 274 0 282 22 4 11
7 619 7 1350 1 1058 -2 1332 -12 1347 -11 17 -32 18 -284 16 -266 -2 -273 -2
-283 -23 -7 -14 -10 -186 -10 -508 l0 -486 -25 -1 c-101 -4 -753 -3 -759 1 -3
3 -6 229 -6 502 0 273 -4 500 -9 505 -4 4 -129 9 -277 10 -242 2 -272 0 -287
-15z"/>
        <path d="M9645 7603 c-13 -13 -15 -187 -15 -1353 0 -1171 2 -1340 15 -1353 12
-13 49 -15 202 -15 217 0 218 0 229 84 3 30 8 54 10 54 2 0 23 -14 47 -31 89
-65 254 -128 382 -147 28 -4 113 -7 190 -7 161 1 231 15 340 70 181 91 298
293 340 588 3 27 9 59 12 70 3 12 7 126 8 252 4 245 -6 351 -46 494 -94 335
-324 504 -674 495 -143 -3 -299 -41 -416 -100 l-45 -23 -1 456 c0 431 -1 457
-18 470 -29 20 -539 17 -560 -4z m980 -1296 c139 -55 194 -179 199 -449 4
-262 -27 -422 -96 -484 -54 -50 -86 -59 -208 -58 -119 1 -163 10 -262 57 l-48
22 0 421 1 422 52 23 c124 54 288 75 362 46z"/>
        <path d="M3229 7546 c-106 -28 -174 -90 -220 -197 -67 -156 10 -352 165 -420
70 -31 182 -35 252 -8 223 84 278 391 100 552 -73 67 -203 99 -297 73z"/>
        <path d="M4089 7273 c-1 -5 -2 -127 -3 -273 l-1 -265 -143 -36 c-78 -20 -148
-41 -154 -47 -17 -17 -13 -372 4 -383 7 -5 31 -9 53 -10 22 0 85 -1 140 -2
l100 -2 1 -450 c1 -377 4 -462 18 -527 50 -232 180 -364 412 -419 95 -23 285
-31 379 -16 94 15 185 39 192 50 9 15 11 395 1 410 -5 8 -46 12 -135 13 -140
1 -184 12 -235 61 -49 47 -51 70 -53 478 0 209 1 385 3 391 2 8 62 12 199 12
178 0 198 1 210 18 16 22 19 424 3 455 -10 18 -23 19 -210 19 -153 0 -200 3
-201 13 -1 6 -2 118 -4 247 -1 129 -3 243 -4 253 -1 16 -22 17 -286 17 -157 0
-286 -3 -286 -7z"/>
        <path d="M3028 6739 c-17 -9 -18 -64 -18 -913 0 -763 2 -905 14 -922 14 -18
29 -19 276 -20 245 -2 263 -1 281 17 18 18 19 50 19 915 0 598 -3 902 -10 915
-10 18 -24 19 -278 19 -163 0 -274 -5 -284 -11z"/>
        <path d="M7636 6729 c-9 -13 -11 -182 -10 -696 0 -373 4 -694 8 -713 52 -269
164 -396 404 -462 102 -28 374 -35 472 -12 119 27 223 64 316 113 100 51 104
51 104 -12 1 -65 7 -67 207 -67 151 0 183 3 193 16 18 21 21 1809 3 1833 -10
14 -46 16 -279 16 -229 1 -270 -1 -284 -15 -13 -13 -15 -92 -15 -672 l1 -658
-61 -29 c-89 -43 -168 -61 -260 -58 -125 4 -178 40 -205 139 -7 23 -10 268
-11 646 0 502 -2 613 -14 628 -13 18 -31 19 -285 19 -246 1 -273 -1 -284 -16z"/>
    </g>
</svg>
